<svg width="37" height="148" fill="none" xmlns="http://www.w3.org/2000/svg"><path d="M2.452 94.327a2.452 2.452 0 100-4.905 2.452 2.452 0 000 4.905zm15.564 0a2.452 2.452 0 100-4.905 2.452 2.452 0 000 4.905zm15.564 0a2.452 2.452 0 100-4.905 2.452 2.452 0 000 4.905zM2.452 75.98a2.452 2.452 0 100-4.905 2.452 2.452 0 000 4.905zm15.564 0a2.452 2.452 0 100-4.905 2.452 2.452 0 000 4.905zm15.564 0a2.452 2.452 0 100-4.905 2.452 2.452 0 000 4.905zM2.452 59.945a2.453 2.453 0 100-4.905 2.453 2.453 0 000 4.905zm15.564 0a2.453 2.453 0 100-4.905 2.453 2.453 0 000 4.905zm15.564 0a2.453 2.453 0 100-4.905 2.453 2.453 0 000 4.905zM2.452 147.539a2.452 2.452 0 100-4.905 2.452 2.452 0 000 4.905zm15.564 0a2.452 2.452 0 100-4.905 2.452 2.452 0 000 4.905zm15.564 0a2.452 2.452 0 100-4.905 2.452 2.452 0 000 4.905zM2.452 129.193a2.453 2.453 0 100-4.905 2.453 2.453 0 000 4.905zm15.564 0a2.453 2.453 0 100-4.905 2.453 2.453 0 000 4.905zm15.564 0a2.453 2.453 0 100-4.905 2.453 2.453 0 000 4.905zM2.452 113.157a2.452 2.452 0 100-4.905 2.452 2.452 0 000 4.905zm15.564 0a2.452 2.452 0 100-4.905 2.452 2.452 0 000 4.905zm15.564 0a2.452 2.452 0 100-4.905 2.452 2.452 0 000 4.905zM2.452 41.598a2.452 2.452 0 100-4.905 2.452 2.452 0 000 4.905zm15.564 0a2.452 2.452 0 100-4.905 2.452 2.452 0 000 4.905zm15.564 0a2.452 2.452 0 100-4.905 2.452 2.452 0 000 4.905zM2.452 23.252a2.452 2.452 0 100-4.905 2.452 2.452 0 000 4.904zm15.564 0a2.452 2.452 0 100-4.905 2.452 2.452 0 000 4.904zm15.564 0a2.452 2.452 0 100-4.905 2.452 2.452 0 000 4.904zM2.452 4.905a2.452 2.452 0 100-4.905 2.452 2.452 0 000 4.905zm15.564 0a2.452 2.452 0 100-4.905 2.452 2.452 0 000 4.905zm15.564 0a2.452 2.452 0 100-4.905 2.452 2.452 0 000 4.905z" fill="#000"/></svg>