<svg width="18" height="19" fill="none" xmlns="http://www.w3.org/2000/svg"><g clip-path="url(#clip0_1_376)" fill="#EA6628"><path d="M13.127 0H4.872C2.186 0 0 2.307 0 5.143v8.714C0 16.693 2.186 19 4.872 19h8.256C15.814 19 18 16.693 18 13.857V5.143C18 2.307 15.814 0 13.127 0zM9 14.695c-2.714 0-4.922-2.33-4.922-5.195S6.286 4.305 9 4.305c2.714 0 4.922 2.33 4.922 5.195S11.714 14.695 9 14.695zm5.04-9.165c-.803 0-1.455-.689-1.455-1.535 0-.847.652-1.535 1.454-1.535.802 0 1.455.688 1.455 1.535 0 .846-.653 1.535-1.455 1.535z"/><path d="M9 5.419c-2.132 0-3.867 1.83-3.867 4.08 0 2.251 1.735 4.082 3.867 4.082 2.132 0 3.867-1.83 3.867-4.081 0-2.25-1.735-4.081-3.867-4.081zm5.04-1.845c-.22 0-.4.189-.4.42 0 .233.18.422.4.422.22 0 .399-.189.399-.421a.411.411 0 00-.4-.421z"/></g><defs><clipPath id="clip0_1_376"><path fill="#fff" d="M0 0h18v19H0z"/></clipPath></defs></svg>