<svg width="23" height="15" fill="none" xmlns="http://www.w3.org/2000/svg"><path d="M19.085 8.485c-.372-.47-.265-.678 0-1.098.005-.005 3.075-4.246 3.39-5.685h.003c.157-.525 0-.91-.76-.91h-2.515c-.64 0-.935.33-1.093.7 0 0-1.28 3.065-3.092 5.052-.585.574-.855.758-1.174.758-.157 0-.401-.184-.401-.709V1.701c0-.629-.18-.91-.71-.91H8.78c-.401 0-.64.294-.64.567 0 .596.906.733 1 2.41v3.639c0 .797-.145.944-.466.944-.855 0-2.93-3.077-4.16-6.6-.247-.682-.49-.958-1.135-.958H.862c-.717 0-.862.33-.862.7 0 .654.855 3.903 3.975 8.197 2.08 2.93 5.008 4.518 7.673 4.518 1.601 0 1.796-.352 1.796-.959 0-2.8-.144-3.065.658-3.065.372 0 1.012.184 2.507 1.598 1.709 1.676 1.99 2.426 2.946 2.426h2.515c.716 0 1.08-.352.87-1.048-.478-1.463-3.71-4.474-3.855-4.675z" fill="#EA6628"/></svg>