<svg width="18" height="19" fill="none" xmlns="http://www.w3.org/2000/svg"><g clip-path="url(#clip0_1_372)"><path d="M9.002 0h-.004C4.035 0 0 4.26 0 9.5c0 2.078.634 4.004 1.713 5.568l-1.121 3.53 3.46-1.168A8.59 8.59 0 009.001 19C13.965 19 18 14.738 18 9.5S13.965 0 9.002 0zm5.237 13.415c-.217.647-1.079 1.184-1.766 1.34-.47.107-1.085.19-3.152-.714-2.645-1.157-4.348-3.994-4.481-4.178-.127-.183-1.07-1.502-1.07-2.865 0-1.363.656-2.027.92-2.312.217-.234.576-.34.92-.34.112 0 .212.005.302.01.264.012.397.028.571.469.218.552.746 1.915.81 2.055.064.14.128.33.038.515-.085.19-.159.274-.292.435-.133.162-.258.285-.391.459-.122.15-.259.312-.106.591.153.273.682 1.184 1.46 1.916 1.005.944 1.82 1.245 2.11 1.373.218.095.477.073.635-.105.202-.23.45-.61.703-.983.18-.269.408-.302.646-.207.243.089 1.529.76 1.793.899.265.14.44.207.503.324.063.118.063.67-.154 1.318z" fill="#EA6628"/></g><defs><clipPath id="clip0_1_372"><path fill="#fff" d="M0 0h18v19H0z"/></clipPath></defs></svg>