<svg width="24" height="24" fill="none" xmlns="http://www.w3.org/2000/svg"><g clip-path="url(#clip0_3577_12)" fill="#000"><path d="M23.644 8.675a1.658 1.658 0 00-1.305-.626h-4.622L15.211 2.31a.703.703 0 10-1.289.563l2.26 5.176H7.818l2.26-5.176A.703.703 0 108.79 2.31L6.283 8.05H1.66c-.512 0-.988.227-1.305.625-.31.39-.426.892-.315 1.377l2.47 10.781a1.647 1.647 0 001.62 1.279h15.74c.782 0 1.448-.526 1.62-1.279l2.469-10.781a1.62 1.62 0 00-.315-1.377zm-3.773 12.03H4.129a.251.251 0 01-.249-.186L1.412 9.74a.215.215 0 01.044-.188.255.255 0 01.205-.096h4.008l-.184.422a.703.703 0 001.288.563l.43-.984h9.594l.43.984a.703.703 0 101.288-.563l-.184-.422h4.008c.112 0 .177.06.205.096a.22.22 0 01.044.187l-2.468 10.78a.252.252 0 01-.25.186z"/><path d="M7.781 12.502a.703.703 0 00-.703.704v5.156a.703.703 0 001.406 0v-5.156a.703.703 0 00-.703-.704zm4.219 0a.703.703 0 00-.703.704v5.156a.703.703 0 001.406 0v-5.156a.703.703 0 00-.703-.704zm4.219 0a.703.703 0 00-.703.704v5.156a.703.703 0 001.406 0v-5.156a.703.703 0 00-.703-.704z"/></g><defs><clipPath id="clip0_3577_12"><path fill="#fff" d="M0 0h24v24H0z"/></clipPath></defs></svg>