<svg width="15" height="16" fill="none" xmlns="http://www.w3.org/2000/svg"><g clip-path="url(#clip0_3577_43)" fill="#4C858B"><path d="M10.94 0H4.06C1.821 0 0 1.943 0 4.331v7.338C0 14.057 1.821 16 4.06 16h6.88c2.239 0 4.06-1.943 4.06-4.331V4.331C15 1.943 13.178 0 10.94 0zM7.5 12.375c-2.262 0-4.101-1.963-4.101-4.375S5.239 3.625 7.5 3.625c2.262 0 4.101 1.963 4.101 4.375s-1.84 4.375-4.101 4.375zm4.2-7.718c-.669 0-1.212-.58-1.212-1.293s.543-1.293 1.212-1.293c.668 0 1.212.58 1.212 1.293s-.544 1.293-1.213 1.293z"/><path d="M7.5 4.563C5.723 4.563 4.278 6.105 4.278 8c0 1.895 1.445 3.437 3.222 3.437S10.722 9.895 10.722 8c0-1.895-1.445-3.437-3.222-3.437zm4.2-1.553c-.184 0-.333.158-.333.354 0 .196.15.355.332.355.184 0 .333-.16.333-.355 0-.196-.149-.355-.332-.355z"/></g><defs><clipPath id="clip0_3577_43"><path fill="#fff" d="M0 0h15v16H0z"/></clipPath></defs></svg>