<svg width="15" height="16" fill="none" xmlns="http://www.w3.org/2000/svg"><g clip-path="url(#clip0_3577_39)"><path d="M7.502 0h-.004C3.363 0 0 3.588 0 8c0 1.75.529 3.372 1.428 4.689l-.935 2.972 2.883-.983A7.108 7.108 0 007.502 16C11.637 16 15 12.411 15 8s-3.363-8-7.498-8zm4.364 11.297c-.181.545-.9.997-1.472 1.129-.392.089-.904.16-2.627-.602-2.204-.974-3.623-3.363-3.734-3.518-.106-.155-.89-1.265-.89-2.413s.546-1.707.766-1.947c.181-.197.48-.287.767-.287.093 0 .176.005.252.009.22.01.33.024.476.395.18.465.621 1.613.674 1.731.053.118.107.278.032.433-.07.16-.133.231-.243.367-.11.136-.216.24-.326.386-.102.127-.216.263-.089.498.128.23.569.997 1.217 1.613.838.795 1.516 1.049 1.76 1.157.18.08.396.061.528-.089.168-.193.375-.513.586-.828.15-.226.34-.254.538-.174.202.075 1.274.64 1.494.757.22.118.366.174.42.273.052.099.052.564-.13 1.11z" fill="#4C858B"/></g><defs><clipPath id="clip0_3577_39"><path fill="#fff" d="M0 0h15v16H0z"/></clipPath></defs></svg>