<svg width="32" height="128" fill="none" xmlns="http://www.w3.org/2000/svg"><path d="M2.12 81.542a2.12 2.12 0 100-4.24 2.12 2.12 0 000 4.24zm13.455 0a2.12 2.12 0 100-4.24 2.12 2.12 0 000 4.24zm13.454 0a2.12 2.12 0 100-4.24 2.12 2.12 0 000 4.24zM2.12 65.682a2.12 2.12 0 100-4.24 2.12 2.12 0 000 4.24zm13.455 0a2.12 2.12 0 100-4.24 2.12 2.12 0 000 4.24zm13.454 0a2.12 2.12 0 100-4.24 2.12 2.12 0 000 4.24zM2.12 51.82a2.12 2.12 0 100-4.24 2.12 2.12 0 000 4.24zm13.455 0a2.12 2.12 0 100-4.24 2.12 2.12 0 000 4.24zm13.454 0a2.12 2.12 0 100-4.24 2.12 2.12 0 000 4.24zM2.12 127.542a2.12 2.12 0 100-4.241 2.12 2.12 0 000 4.241zm13.454 0a2.12 2.12 0 100-4.241 2.12 2.12 0 000 4.241zm13.455 0a2.12 2.12 0 10-.001-4.241 2.12 2.12 0 000 4.241zM2.12 111.682a2.12 2.12 0 100-4.24 2.12 2.12 0 000 4.24zm13.454 0a2.12 2.12 0 100-4.24 2.12 2.12 0 000 4.24zm13.455 0a2.12 2.12 0 100-4.24 2.12 2.12 0 000 4.24zM2.12 97.82a2.12 2.12 0 100-4.24 2.12 2.12 0 000 4.24zm13.454 0a2.12 2.12 0 100-4.24 2.12 2.12 0 000 4.24zm13.455 0a2.12 2.12 0 100-4.24 2.12 2.12 0 000 4.24zM2.12 35.96a2.12 2.12 0 100-4.24 2.12 2.12 0 000 4.24zm13.455 0a2.12 2.12 0 100-4.24 2.12 2.12 0 000 4.24zm13.454 0a2.12 2.12 0 100-4.24 2.12 2.12 0 000 4.24zM2.12 20.1a2.12 2.12 0 100-4.24 2.12 2.12 0 000 4.24zm13.455 0a2.12 2.12 0 100-4.24 2.12 2.12 0 000 4.24zm13.454 0a2.12 2.12 0 100-4.24 2.12 2.12 0 000 4.24zM2.12 4.24a2.12 2.12 0 100-4.24 2.12 2.12 0 000 4.24zm13.455 0a2.12 2.12 0 100-4.24 2.12 2.12 0 000 4.24zm13.454 0a2.12 2.12 0 100-4.24 2.12 2.12 0 000 4.24z" fill="#000"/></svg>